<svg width="50" height="51" viewBox="0 0 50 51" fill="none" xmlns="http://www.w3.org/2000/svg">
<g clip-path="url(#clip0_418_906)">
<path d="M25 50.7273C38.8071 50.7273 50 39.5344 50 25.7273C50 11.9201 38.8071 0.727264 25 0.727264C11.1929 0.727264 0 11.9201 0 25.7273C0 39.5344 11.1929 50.7273 25 50.7273Z" fill="#F0F0F0"/>
<path d="M33.6956 25.7273C33.6956 27.9012 29.8024 33.336 25 33.336C20.1976 33.336 16.3044 27.9012 16.3044 25.7273C16.3044 20.9247 20.1976 17.0317 25 17.0317C29.8024 17.0317 33.6956 20.9247 33.6956 25.7273Z" fill="#D80027"/>
<path d="M33.6956 25.7273C33.6956 30.5298 29.8024 34.4229 25 34.4229C20.1976 34.4229 16.3044 30.5298 16.3044 25.7273" fill="#0052B4"/>
<path d="M34.2163 33.4136L36.5217 31.1082L38.0587 32.6451L35.7532 34.9505L34.2163 33.4136Z" fill="black"/>
<path d="M30.3728 37.2561L32.6782 34.9507L34.2152 36.4877L31.9097 38.7931L30.3728 37.2561Z" fill="black"/>
<path d="M38.8275 38.0242L41.1329 35.7188L42.6699 37.2558L40.3644 39.5612L38.8275 38.0242Z" fill="black"/>
<path d="M34.9841 41.8673L37.2895 39.5619L38.8265 41.0989L36.521 43.4043L34.9841 41.8673Z" fill="black"/>
<path d="M36.5218 35.7191L38.8272 33.4137L40.3641 34.9506L38.0587 37.256L36.5218 35.7191Z" fill="black"/>
<path d="M32.6793 39.5615L34.9847 37.2561L36.5217 38.7931L34.2163 41.0985L32.6793 39.5615Z" fill="black"/>
<path d="M38.8376 18.0452L32.6899 11.8974L34.2268 10.3604L40.3746 16.5082L38.8376 18.0452Z" fill="black"/>
<path d="M32.6887 16.5088L30.3833 14.2034L31.9202 12.6665L34.2256 14.9719L32.6887 16.5088Z" fill="black"/>
<path d="M36.5311 20.3521L34.2257 18.0467L35.7626 16.5098L38.068 18.8152L36.5311 20.3521Z" fill="black"/>
<path d="M37.2991 11.8972L34.9937 9.59174L36.5306 8.05478L38.836 10.3602L37.2991 11.8972Z" fill="black"/>
<path d="M41.1436 15.741L38.8382 13.4356L40.3751 11.8986L42.6805 14.204L41.1436 15.741Z" fill="black"/>
<path d="M8.86275 35.7148L15.0105 41.8625L13.4736 43.3995L7.32578 37.2517L8.86275 35.7148Z" fill="black"/>
<path d="M15.0102 37.2505L17.3156 39.5559L15.7787 41.0928L13.4733 38.7874L15.0102 37.2505Z" fill="black"/>
<path d="M11.1675 33.4088L13.4729 35.7143L11.9359 37.2512L9.63053 34.9458L11.1675 33.4088Z" fill="black"/>
<path d="M13.4732 31.1028L19.621 37.2506L18.084 38.7875L11.9362 32.6397L13.4732 31.1028Z" fill="black"/>
<path d="M15.0099 9.58699L8.8621 15.7348L7.32513 14.1978L13.4729 8.05002L15.0099 9.58699Z" fill="black"/>
<path d="M17.3153 11.8922L11.1675 18.0399L9.63056 16.503L15.7784 10.3552L17.3153 11.8922Z" fill="black"/>
<path d="M19.6229 14.199L13.4751 20.3468L11.9382 18.8099L18.086 12.6621L19.6229 14.199Z" fill="black"/>
</g>
<defs>
<clipPath id="clip0_418_906">
<rect width="50" height="50" fill="white" transform="translate(0 0.727264)"/>
</clipPath>
</defs>
</svg>
