<svg width="50" height="51" viewBox="0 0 50 51" fill="none" xmlns="http://www.w3.org/2000/svg">
<g clip-path="url(#clip0_418_914)">
<path d="M0 25.6363C0 36.3854 6.78438 45.5489 16.3042 49.0813L18.4782 25.6363L16.3042 2.19133C6.78438 5.72375 0 14.8872 0 25.6363Z" fill="#6DA544"/>
<path d="M50 25.6364C50 11.8293 38.807 0.636353 25 0.636353C21.942 0.636353 19.0126 1.18645 16.3042 2.19133V49.0814C19.0126 50.0864 21.942 50.6364 25 50.6364C38.807 50.6364 50 39.4434 50 25.6364Z" fill="#D80027"/>
<path d="M16.3044 34.332C21.1069 34.332 25 30.4388 25 25.6364C25 20.8339 21.1069 16.9408 16.3044 16.9408C11.502 16.9408 7.6088 20.8339 7.6088 25.6364C7.6088 30.4388 11.502 34.332 16.3044 34.332Z" fill="#FFDA44"/>
<path d="M11.4131 21.2885V26.7233C11.4131 29.4246 13.6029 31.6146 16.3044 31.6146C19.0059 31.6146 21.1957 29.4247 21.1957 26.7233V21.2885H11.4131Z" fill="#D80027"/>
<path d="M16.3044 28.3537C15.4054 28.3537 14.6739 27.6223 14.6739 26.7233V24.5494H17.9348V26.7234C17.9348 27.6223 17.2033 28.3537 16.3044 28.3537Z" fill="#F0F0F0"/>
</g>
<defs>
<clipPath id="clip0_418_914">
<rect width="50" height="50" fill="white" transform="translate(0 0.636353)"/>
</clipPath>
</defs>
</svg>
