<svg width="50" height="51" viewBox="0 0 50 51" fill="none" xmlns="http://www.w3.org/2000/svg">
<g clip-path="url(#clip0_403_744)">
<path d="M25 50.6364C38.8071 50.6364 50 39.4435 50 25.6364C50 11.8292 38.8071 0.636353 25 0.636353C11.1929 0.636353 0 11.8292 0 25.6364C0 39.4435 11.1929 50.6364 25 50.6364Z" fill="#F0F0F0"/>
<path d="M25 0.636353C11.193 0.636353 0 11.8293 0 25.6364C0 28.6944 0.550098 31.6238 1.55498 34.332H48.4451C49.45 31.6238 50 28.6944 50 25.6364C50 11.8293 38.807 0.636353 25 0.636353Z" fill="#0052B4"/>
<path d="M25 0.636353C14.2508 0.636353 5.08726 7.42073 1.55493 16.9407H48.4451C44.9126 7.42073 35.7491 0.636353 25 0.636353V0.636353Z" fill="#D80027"/>
<path d="M6.4646 14.7668V27.2381C6.4646 34.3323 15.7323 36.506 15.7323 36.506C15.7323 36.506 24.9999 34.3323 24.9999 27.2381V14.7668H6.4646Z" fill="#D80027"/>
<path d="M10.2974 16.9407H21.167V12.5929L18.9931 13.6798L15.7322 10.419L12.4713 13.6798L10.2974 12.5929V16.9407Z" fill="#FFDA44"/>
<path d="M22.826 28.9745L15.7608 21.9093L8.69556 28.9745L11.0013 31.2803L15.7608 26.5208L20.5203 31.2803L22.826 28.9745Z" fill="#FFDA44"/>
<path d="M22.826 22.3755H19.5295C19.7149 22.0556 19.8227 21.6851 19.8227 21.2888C19.8227 20.088 18.8494 19.1149 17.6488 19.1149C16.8192 19.1149 16.0988 19.5795 15.7323 20.2626C15.3658 19.5796 14.6454 19.1149 13.8158 19.1149C12.6152 19.1149 11.6418 20.088 11.6418 21.2888C11.6418 21.6851 11.7497 22.0557 11.935 22.3755H8.69556C8.69556 23.5762 9.74136 24.5494 10.9418 24.5494H10.8695C10.8695 25.7501 11.8427 26.7234 13.0434 26.7234C13.0434 27.7865 13.8069 28.6697 14.8152 28.8587L13.1023 32.7261C13.9232 33.0598 14.8203 33.2451 15.7609 33.2451C16.7015 33.2451 17.5986 33.0598 18.4195 32.7261L16.7066 28.8587C17.7149 28.6698 18.4784 27.7865 18.4784 26.7234C19.6791 26.7234 20.6523 25.7501 20.6523 24.5494H20.5799C21.7803 24.5494 22.826 23.5761 22.826 22.3755V22.3755Z" fill="#F0F0F0"/>
</g>
<defs>
<clipPath id="clip0_403_744">
<rect width="50" height="50" fill="white" transform="translate(0 0.636353)"/>
</clipPath>
</defs>
</svg>
