<svg width="50" height="51" viewBox="0 0 50 51" fill="none" xmlns="http://www.w3.org/2000/svg">
<g clip-path="url(#clip0_418_919)">
<path d="M0 25.6364C0 28.6944 0.550098 31.6237 1.55498 34.332L25 35.419L48.445 34.3321C49.45 31.6237 50 28.6944 50 25.6364C50 22.5783 49.45 19.649 48.445 16.9407L25 15.8537L1.55498 16.9406C0.550098 19.649 0 22.5783 0 25.6364H0Z" fill="#FFDA44"/>
<path d="M25 0.636353C14.2509 0.636353 5.0873 7.42073 1.55498 16.9407H48.4451C44.9127 7.42073 35.7491 0.636353 25 0.636353V0.636353Z" fill="#D80027"/>
<path d="M48.445 34.332H1.55498C5.0873 43.8519 14.2509 50.6363 25 50.6363C35.7491 50.6363 44.9127 43.8519 48.445 34.332Z" fill="#496E2D"/>
<path d="M24.9998 16.9408L27.158 23.5833H34.1432L28.4925 27.6891L30.6507 34.332L24.9998 30.2265L19.3489 34.332L21.5075 27.6891L15.8568 23.5833H22.8416L24.9998 16.9408Z" fill="black"/>
</g>
<defs>
<clipPath id="clip0_418_919">
<rect width="50" height="50" fill="white" transform="translate(0 0.636353)"/>
</clipPath>
</defs>
</svg>
